<svg xmlns="http://www.w3.org/2000/svg" viewBox="0 0 900 900">
  <defs>
    <linearGradient id="night" x1="0%" y1="0%" x2="0%" y2="100%">
      <stop offset="0%" stop-color="#0f1b48" />
      <stop offset="55%" stop-color="#183a7a" />
      <stop offset="100%" stop-color="#1f5b96" />
    </linearGradient>
    <radialGradient id="moonGlow" cx="58%" cy="34%" r="22%">
      <stop offset="0%" stop-color="#fffce8" stop-opacity="1" />
      <stop offset="100%" stop-color="#fffce8" stop-opacity="0" />
    </radialGradient>
  </defs>
  <rect width="900" height="900" fill="url(#night)" />
  <circle cx="540" cy="306" r="180" fill="url(#moonGlow)" />
  <circle cx="525" cy="300" r="112" fill="#fff7d8" />
  <circle cx="572" cy="276" r="102" fill="#0f1b48" opacity="0.9" />
  <g fill="#d8ebff">
    <circle cx="172" cy="190" r="8" />
    <circle cx="210" cy="138" r="12" />
    <circle cx="296" cy="208" r="10" />
    <circle cx="342" cy="112" r="7" />
    <circle cx="706" cy="162" r="11" />
    <circle cx="754" cy="246" r="7" />
    <circle cx="132" cy="342" r="9" />
    <circle cx="768" cy="364" r="10" />
  </g>
  <path d="M0 646C97 611 210 610 320 651C417 688 504 716 620 706C739 696 819 642 900 616V900H0Z" fill="#0a203f" />
  <path d="M0 708C103 671 219 685 324 728C437 774 566 788 678 756C777 727 838 681 900 665V900H0Z" fill="#123060" />
  <path d="M0 790C142 744 288 760 408 813C532 868 679 865 819 820C847 811 874 803 900 798V900H0Z" fill="#1f4678" />
  <path d="M188 618L258 768H118Z" fill="#f0a14d" opacity="0.9" />
  <path d="M670 610L760 792H580Z" fill="#f0a14d" opacity="0.78" />
</svg>
