<svg xmlns="http://www.w3.org/2000/svg" viewBox="0 0 900 900">
  <defs>
    <linearGradient id="flameBg" x1="0%" y1="0%" x2="0%" y2="100%">
      <stop offset="0%" stop-color="#2f1122" />
      <stop offset="100%" stop-color="#7f1d1d" />
    </linearGradient>
    <linearGradient id="outerFlame" x1="50%" y1="0%" x2="50%" y2="100%">
      <stop offset="0%" stop-color="#ffe08a" />
      <stop offset="45%" stop-color="#ff8a36" />
      <stop offset="100%" stop-color="#d12d20" />
    </linearGradient>
    <linearGradient id="innerFlame" x1="50%" y1="0%" x2="50%" y2="100%">
      <stop offset="0%" stop-color="#fff7d1" />
      <stop offset="100%" stop-color="#ffb442" />
    </linearGradient>
  </defs>
  <rect width="900" height="900" fill="url(#flameBg)" />
  <circle cx="246" cy="226" r="160" fill="#ffffff" opacity="0.08" />
  <circle cx="710" cy="664" r="192" fill="#ffffff" opacity="0.08" />
  <path d="M470 112C572 186 657 269 712 390C773 526 752 672 662 760C587 833 483 861 385 839C275 815 191 733 160 627C132 531 151 445 208 367C259 298 332 252 360 166C374 122 376 86 370 52C415 69 446 87 470 112Z" fill="url(#outerFlame)" />
  <path d="M468 252C532 302 584 356 618 434C653 516 644 608 590 677C544 735 476 770 410 758C339 746 284 688 266 618C250 558 261 500 296 450C328 404 373 370 392 316C401 291 403 269 398 242C425 251 447 260 468 252Z" fill="url(#innerFlame)" />
  <path d="M570 140C650 206 714 287 756 382" fill="none" stroke="#ffd8a2" stroke-width="12" stroke-linecap="round" opacity="0.55" />
  <path d="M632 192C704 256 758 331 792 416" fill="none" stroke="#ffd8a2" stroke-width="8" stroke-linecap="round" opacity="0.35" />
</svg>
