<svg xmlns="http://www.w3.org/2000/svg" width="900" height="900" viewBox="0 0 900 900">
  <defs>
    <linearGradient id="sky" x1="0%" y1="0%" x2="0%" y2="100%">
      <stop offset="0%" stop-color="#fff0b8" />
      <stop offset="55%" stop-color="#f7b96b" />
      <stop offset="100%" stop-color="#d96b4c" />
    </linearGradient>
    <radialGradient id="sunGlow" cx="50%" cy="38%" r="32%">
      <stop offset="0%" stop-color="#fffdf2" stop-opacity="1" />
      <stop offset="55%" stop-color="#ffe8a6" stop-opacity="0.92" />
      <stop offset="100%" stop-color="#ffe8a6" stop-opacity="0" />
    </radialGradient>
  </defs>
  <rect width="900" height="900" fill="url(#sky)" />
  <circle cx="450" cy="330" r="270" fill="url(#sunGlow)" />
  <g stroke="#fff7df" stroke-linecap="round" opacity="0.88">
    <line x1="450" y1="92" x2="450" y2="190" stroke-width="18" />
    <line x1="267" y1="143" x2="322" y2="223" stroke-width="16" />
    <line x1="633" y1="143" x2="578" y2="223" stroke-width="16" />
    <line x1="180" y1="330" x2="280" y2="330" stroke-width="16" />
    <line x1="620" y1="330" x2="720" y2="330" stroke-width="16" />
  </g>
  <circle cx="450" cy="338" r="140" fill="#fff7dc" />
  <path d="M0 640C120 590 235 612 337 658C433 701 528 730 638 706C731 686 818 632 900 614V900H0Z" fill="#70492f" opacity="0.38" />
  <path d="M0 688C92 655 185 658 287 704C381 748 496 774 609 750C730 724 811 666 900 650V900H0Z" fill="#8f5c3a" opacity="0.52" />
  <path d="M0 734C104 698 219 703 336 754C460 809 597 821 712 785C783 762 846 725 900 709V900H0Z" fill="#b46f46" opacity="0.75" />
  <path d="M0 786C123 744 258 757 372 803C508 859 650 858 786 818C831 804 871 789 900 782V900H0Z" fill="#f2c96c" />
  <circle cx="728" cy="172" r="20" fill="#fff8d7" opacity="0.7" />
  <circle cx="764" cy="220" r="10" fill="#fff8d7" opacity="0.55" />
</svg>
